<svg width="13" height="18" viewBox="0 0 13 18" fill="none" xmlns="http://www.w3.org/2000/svg">
<path d="M1.02087 17.1108C1.02087 17.319 1.18847 17.4878 1.39522 17.4878H10.8975C11.1042 17.4878 11.2718 17.319 11.2718 17.1108V4.89489H1.02087V17.1108ZM8.25206 6.97379H9.65586V15.1935H8.25206V6.97379ZM5.44445 6.97379H6.84825V15.1935H5.44445V6.97379ZM2.63684 6.97379H4.04064V15.1935H2.63684V6.97379Z" fill="#BDBDBD"/>
<path d="M9.30163 2.24484V0.889218C9.30163 0.680986 9.13403 0.512192 8.92728 0.512192H3.36541C3.15865 0.512192 2.99106 0.680986 2.99106 0.889218V2.24484V2.48048V2.71612H0.374348C0.167595 2.71612 1.02818e-08 2.88491 1.02818e-08 3.09314V4.04657C1.02818e-08 4.25478 0.167595 4.42359 0.374348 4.42359H1.02086H11.2718H11.9183C12.1251 4.42359 12.2927 4.25478 12.2927 4.04657V3.09314C12.2927 2.88491 12.1251 2.71612 11.9183 2.71612H9.30163V2.48048V2.24484ZM7.89782 2.6386H4.39486V2.48046V2.24482V1.92604H7.89782V2.24484V2.48048V2.6386Z" fill="#BDBDBD"/>
</svg>
